<svg width="439" height="268" viewBox="0 0 439 268" fill="none" xmlns="http://www.w3.org/2000/svg">
<path d="M164.957 161.671C164.957 127.211 145.566 97.9149 105.522 97.9149C68.9013 97.9149 46.929 125.051 46.929 161.671C46.929 198.291 68.9013 225.409 105.522 225.409C145.566 225.409 164.957 196.112 164.957 161.671ZM209.743 0.339844V262.011H163.235V234.875C150.73 255.126 123.173 267.174 98.6187 267.174C34.0204 267.174 0 220.666 0 161.671C0 102.676 37.4627 56.1493 99.9187 56.1493C126.615 56.1493 150.73 68.1974 163.235 88.4485V0.339844H209.743Z" fill="#F8F3ED"/>
<path d="M394.072 161.67C394.072 127.21 374.681 97.914 334.619 97.914C297.998 97.914 276.026 125.05 276.026 161.67C276.026 198.29 297.998 225.408 334.619 225.408C374.681 225.408 394.072 196.112 394.072 161.67ZM229.115 161.67C229.115 102.656 266.578 56.1484 329.034 56.1484C355.73 56.1484 379.845 68.1965 392.332 88.4476V61.3119H438.822V262.01H392.332V234.874C379.845 255.125 352.288 267.173 327.734 267.173C263.136 267.173 229.115 220.666 229.115 161.67Z" fill="#F8F3ED"/>
</svg>
