<svg width="346" height="268" viewBox="0 0 346 268" fill="none" xmlns="http://www.w3.org/2000/svg">
<path d="M133.866 220.668V262.012C122.353 263.767 110.722 264.63 99.0764 264.594C76.2436 264.594 34.0386 261.591 34.0386 193.972V100.498H0V61.3143H34.0203V0.597656H80.9677V61.3143H127.054V100.498H80.9677V183.205C80.9677 217.995 91.7341 222.389 110.264 222.389C118.161 222.336 126.045 221.762 133.866 220.668Z" fill="#F8F3ED"/>
<path d="M301.039 161.672C301.039 127.212 281.666 97.9159 241.604 97.9159C204.983 97.9159 183.011 125.052 183.011 161.672C183.011 198.292 204.983 225.41 241.604 225.41C281.666 225.41 301.039 196.114 301.039 161.672ZM136.082 161.672C136.082 102.658 173.563 56.1504 236.001 56.1504C262.715 56.1504 286.83 68.1985 299.317 88.4496V61.3139H345.825V262.012H299.317V234.876C286.83 255.127 259.255 267.175 234.719 267.175C170.102 267.175 136.082 220.667 136.082 161.672Z" fill="#F8F3ED"/>
</svg>
